<?xml version="1.0" standalone="no"?>
<!DOCTYPE svg PUBLIC "-//W3C//DTD SVG 20010904//EN"
 "http://www.w3.org/TR/2001/REC-SVG-20010904/DTD/svg10.dtd">
<svg version="1.0" xmlns="http://www.w3.org/2000/svg"
 width="264.000000pt" height="264.000000pt" viewBox="0 0 264.000000 264.000000"
 preserveAspectRatio="xMidYMid meet">
<metadata>
Created by potrace 1.14, written by Peter Selinger 2001-2017
</metadata>
<g transform="translate(0.000000,264.000000) scale(0.100000,-0.100000)"
fill="#000000" stroke="none">
<path d="M330 2624 c-125 -34 -225 -131 -269 -262 -21 -60 -21 -76 -21 -1000
0 -1023 -2 -989 57 -1089 36 -62 124 -138 191 -165 l57 -23 975 0 975 0 58 23
c110 45 206 159 237 283 8 31 10 326 8 994 -3 879 -4 953 -21 995 -37 97 -134
194 -234 235 -47 19 -77 20 -1003 22 -817 2 -963 0 -1010 -13z m418 -1086 c-2
-28 -7 -33 -28 -33 -16 0 -26 6 -28 18 -6 30 6 47 33 47 24 0 26 -3 23 -32z
m432 -183 c0 -162 -3 -205 -13 -205 -7 0 -18 5 -24 11 -8 8 -17 8 -31 0 -22
-12 -113 -15 -150 -5 -12 4 -29 19 -37 35 -19 35 -20 174 -2 209 15 31 70 48
155 49 l62 1 0 48 c0 51 5 62 27 62 10 0 13 -41 13 -205z m-801 -18 c24 -59
47 -105 51 -102 4 3 27 49 50 102 50 116 55 122 75 102 14 -13 9 -29 -45 -149
-33 -74 -66 -138 -73 -142 -20 -12 -36 13 -92 150 -39 95 -50 133 -42 141 20
20 32 5 76 -102z m361 -43 c0 -137 -1 -144 -20 -144 -19 0 -20 7 -20 144 0
140 5 164 33 149 4 -2 7 -69 7 -149z m795 146 c22 -5 50 -21 63 -35 19 -23 22
-37 22 -111 0 -81 -1 -87 -29 -115 -28 -27 -34 -29 -110 -29 -70 0 -83 3 -108
24 -27 23 -28 28 -28 120 0 84 3 98 21 117 34 34 100 45 169 29z m295 -26 c0
-12 4 -12 24 1 55 36 116 37 103 1 -4 -10 -18 -16 -40 -16 -19 0 -46 -9 -60
-20 -25 -20 -26 -27 -29 -123 -3 -88 -5 -102 -20 -105 -17 -3 -18 9 -18 141 0
79 3 147 7 150 9 9 33 -12 33 -29z m461 15 c28 -15 51 -66 47 -107 l-3 -37
-117 -3 c-115 -3 -118 -3 -118 -25 0 -12 7 -33 16 -45 13 -19 24 -22 84 -22
62 0 72 3 94 26 22 25 46 26 46 3 0 -6 -13 -24 -29 -40 -28 -27 -34 -29 -110
-29 -70 0 -83 3 -108 24 -27 23 -28 28 -28 119 0 106 11 129 69 147 35 11 129
4 157 -11z"/>
<path d="M960 1381 c-17 -32 -13 -157 6 -175 18 -18 107 -22 148 -6 25 9 26
12 26 105 l0 95 -85 0 c-73 0 -86 -3 -95 -19z"/>
<path d="M1399 1383 c-9 -10 -14 -42 -14 -88 0 -96 9 -105 95 -105 89 0 100
12 100 108 0 92 -9 102 -99 102 -52 0 -72 -4 -82 -17z"/>
<path d="M2123 1392 c-7 -4 -16 -22 -19 -40 l-6 -32 96 0 c107 0 122 9 92 55
-15 23 -23 25 -84 25 -37 0 -73 -4 -79 -8z"/>
</g>
</svg>
